<svg width="23" height="40" viewBox="0 0 23 40" fill="none" xmlns="http://www.w3.org/2000/svg">
<path d="M3.54094 37.14C2.7076 37.14 2.04427 36.9 1.55094 36.42C1.0576 35.9333 0.810938 35.2267 0.810938 34.3V32.7C0.810938 31.7733 1.0576 31.07 1.55094 30.59C2.04427 30.1033 2.7076 29.86 3.54094 29.86C4.3676 29.86 5.00094 30.09 5.44094 30.55C5.8876 31.01 6.11094 31.64 6.11094 32.44V32.49H5.28094V32.41C5.28094 31.8833 5.1376 31.4533 4.85094 31.12C4.57094 30.78 4.13427 30.61 3.54094 30.61C2.9476 30.61 2.48427 30.7933 2.15094 31.16C1.8176 31.52 1.65094 32.0267 1.65094 32.68V34.32C1.65094 34.9733 1.8176 35.4833 2.15094 35.85C2.48427 36.21 2.9476 36.39 3.54094 36.39C4.13427 36.39 4.57094 36.2233 4.85094 35.89C5.1376 35.55 5.28094 35.1167 5.28094 34.59V34.43H6.11094V34.56C6.11094 35.36 5.8876 35.99 5.44094 36.45C5.00094 36.91 4.3676 37.14 3.54094 37.14ZM7.45695 37V30H8.24695V32.89H8.38695C8.45362 32.7433 8.55362 32.6067 8.68695 32.48C8.82695 32.3467 9.00362 32.2367 9.21695 32.15C9.43695 32.0633 9.71362 32.02 10.047 32.02C10.4136 32.02 10.7403 32.1 11.027 32.26C11.3203 32.4133 11.5536 32.64 11.727 32.94C11.9003 33.2333 11.987 33.6 11.987 34.04V37H11.197V34.1C11.197 33.6133 11.0736 33.26 10.827 33.04C10.587 32.82 10.2603 32.71 9.84695 32.71C9.37362 32.71 8.98695 32.8633 8.68695 33.17C8.39362 33.4767 8.24695 33.9333 8.24695 34.54V37H7.45695ZM15.0898 37.14C14.7498 37.14 14.4398 37.08 14.1598 36.96C13.8798 36.84 13.6598 36.6667 13.4998 36.44C13.3398 36.2133 13.2598 35.9367 13.2598 35.61C13.2598 35.2767 13.3398 35.0033 13.4998 34.79C13.6598 34.57 13.8798 34.4067 14.1598 34.3C14.4398 34.1867 14.7531 34.13 15.0998 34.13H16.7498V33.77C16.7498 33.4233 16.6464 33.15 16.4398 32.95C16.2398 32.75 15.9398 32.65 15.5398 32.65C15.1464 32.65 14.8398 32.7467 14.6198 32.94C14.3998 33.1267 14.2498 33.38 14.1698 33.7L13.4298 33.46C13.5098 33.1867 13.6364 32.94 13.8098 32.72C13.9831 32.4933 14.2131 32.3133 14.4998 32.18C14.7931 32.04 15.1431 31.97 15.5498 31.97C16.1764 31.97 16.6631 32.1333 17.0098 32.46C17.3564 32.78 17.5298 33.2333 17.5298 33.82V36.03C17.5298 36.23 17.6231 36.33 17.8098 36.33H18.2598V37H17.5698C17.3498 37 17.1731 36.94 17.0398 36.82C16.9064 36.6933 16.8398 36.5267 16.8398 36.32V36.27H16.7198C16.6464 36.3967 16.5464 36.53 16.4198 36.67C16.2998 36.8033 16.1331 36.9133 15.9198 37C15.7064 37.0933 15.4298 37.14 15.0898 37.14ZM15.1798 36.46C15.6464 36.46 16.0231 36.3233 16.3098 36.05C16.6031 35.77 16.7498 35.38 16.7498 34.88V34.77H15.1298C14.8164 34.77 14.5564 34.84 14.3498 34.98C14.1498 35.1133 14.0498 35.3167 14.0498 35.59C14.0498 35.8633 14.1531 36.0767 14.3598 36.23C14.5731 36.3833 14.8464 36.46 15.1798 36.46ZM20.8195 37C20.5395 37 20.3228 36.9233 20.1695 36.77C20.0228 36.6167 19.9495 36.4067 19.9495 36.14V32.8H18.4795V32.11H19.9495V30.37H20.7395V32.11H22.3395V32.8H20.7395V36.02C20.7395 36.22 20.8361 36.32 21.0295 36.32H22.1195V37H20.8195Z" fill="white"/>
<path d="M19.8489 8.53337C18.965 4.2374 15.1212 1 10.5169 1C5.25486 1 1 5.21375 1 10.4141C1 12.2024 1.50359 13.8674 2.37717 15.2959C1.9558 16.3031 1.52414 17.4953 1.24665 18.5847C1.09249 19.2014 1.6372 19.7152 2.25385 19.5508C3.3227 19.2527 4.49433 18.8314 5.5118 18.4203C6.45732 18.9958 7.50562 19.4172 8.62587 19.6433" stroke="white" stroke-linecap="round" stroke-linejoin="round"/>
<path d="M9.57157 15.1213C9.57157 12.0073 12.1306 9.46875 15.2858 9.46875C18.441 9.46875 21.0001 11.997 21.0001 15.1213C21.0001 16.2005 20.6918 17.2179 20.1573 18.0812C20.3629 18.5129 20.5684 19.0062 20.7226 19.5304C20.9076 20.1367 20.3629 20.6609 19.7462 20.4553C19.2324 20.2909 18.7493 20.0956 18.3177 19.9004C17.4338 20.4451 16.3958 20.7637 15.2755 20.7637C12.1204 20.7637 9.56128 18.2354 9.56128 15.1111L9.57157 15.1213Z" stroke="white" stroke-linejoin="round"/>
</svg>
