<svg width="53" height="40" viewBox="0 0 53 40" fill="none" xmlns="http://www.w3.org/2000/svg">
<path d="M0.895781 37V36.25H1.87578V30.75H0.895781V30H3.62578C4.54578 30 5.25578 30.2333 5.75578 30.7C6.26245 31.1667 6.51578 31.8833 6.51578 32.85V34.15C6.51578 35.1233 6.26245 35.8433 5.75578 36.31C5.25578 36.77 4.54578 37 3.62578 37H0.895781ZM2.71578 36.24H3.62578C4.30578 36.24 4.81911 36.0733 5.16578 35.74C5.51245 35.4067 5.68578 34.89 5.68578 34.19V32.82C5.68578 32.1067 5.51245 31.5867 5.16578 31.26C4.81911 30.9333 4.30578 30.77 3.62578 30.77H2.71578V36.24ZM9.38664 37.14C9.04664 37.14 8.73664 37.08 8.45664 36.96C8.17664 36.84 7.95664 36.6667 7.79664 36.44C7.63664 36.2133 7.55664 35.9367 7.55664 35.61C7.55664 35.2767 7.63664 35.0033 7.79664 34.79C7.95664 34.57 8.17664 34.4067 8.45664 34.3C8.73664 34.1867 9.04997 34.13 9.39664 34.13H11.0466V33.77C11.0466 33.4233 10.9433 33.15 10.7366 32.95C10.5366 32.75 10.2366 32.65 9.83664 32.65C9.44331 32.65 9.13664 32.7467 8.91664 32.94C8.69664 33.1267 8.54664 33.38 8.46664 33.7L7.72664 33.46C7.80664 33.1867 7.93331 32.94 8.10664 32.72C8.27997 32.4933 8.50997 32.3133 8.79664 32.18C9.08997 32.04 9.43997 31.97 9.84664 31.97C10.4733 31.97 10.96 32.1333 11.3066 32.46C11.6533 32.78 11.8266 33.2333 11.8266 33.82V36.03C11.8266 36.23 11.92 36.33 12.1066 36.33H12.5566V37H11.8666C11.6466 37 11.47 36.94 11.3366 36.82C11.2033 36.6933 11.1366 36.5267 11.1366 36.32V36.27H11.0166C10.9433 36.3967 10.8433 36.53 10.7166 36.67C10.5966 36.8033 10.43 36.9133 10.2166 37C10.0033 37.0933 9.72664 37.14 9.38664 37.14ZM9.47664 36.46C9.94331 36.46 10.32 36.3233 10.6066 36.05C10.9 35.77 11.0466 35.38 11.0466 34.88V34.77H9.42664C9.11331 34.77 8.85331 34.84 8.64664 34.98C8.44664 35.1133 8.34664 35.3167 8.34664 35.59C8.34664 35.8633 8.44997 36.0767 8.65664 36.23C8.86997 36.3833 9.14331 36.46 9.47664 36.46ZM15.5695 37.14C14.9629 37.14 14.4495 37 14.0295 36.72C13.6162 36.44 13.3662 35.9967 13.2795 35.39L14.0295 35.22C14.0829 35.54 14.1829 35.7933 14.3295 35.98C14.4762 36.16 14.6562 36.29 14.8695 36.37C15.0895 36.4433 15.3229 36.48 15.5695 36.48C15.9362 36.48 16.2262 36.4067 16.4395 36.26C16.6529 36.1133 16.7595 35.9167 16.7595 35.67C16.7595 35.4167 16.6562 35.24 16.4495 35.14C16.2495 35.0333 15.9729 34.9467 15.6195 34.88L15.2095 34.81C14.8962 34.7567 14.6095 34.6733 14.3495 34.56C14.0895 34.4467 13.8829 34.2933 13.7295 34.1C13.5762 33.9067 13.4995 33.6633 13.4995 33.37C13.4995 32.93 13.6695 32.5867 14.0095 32.34C14.3495 32.0933 14.7995 31.97 15.3595 31.97C15.9129 31.97 16.3595 32.0967 16.6995 32.35C17.0462 32.5967 17.2695 32.9467 17.3695 33.4L16.6295 33.59C16.5695 33.2367 16.4262 32.99 16.1995 32.85C15.9729 32.7033 15.6929 32.63 15.3595 32.63C15.0262 32.63 14.7629 32.6933 14.5695 32.82C14.3762 32.94 14.2795 33.12 14.2795 33.36C14.2795 33.5933 14.3695 33.7667 14.5495 33.88C14.7362 33.9867 14.9829 34.0667 15.2895 34.12L15.6995 34.19C16.0462 34.25 16.3562 34.3333 16.6295 34.44C16.9095 34.54 17.1295 34.6867 17.2895 34.88C17.4562 35.0733 17.5395 35.3267 17.5395 35.64C17.5395 36.12 17.3595 36.49 16.9995 36.75C16.6462 37.01 16.1695 37.14 15.5695 37.14ZM18.873 37V30H19.663V32.89H19.803C19.8696 32.7433 19.9696 32.6067 20.103 32.48C20.243 32.3467 20.4196 32.2367 20.633 32.15C20.853 32.0633 21.1296 32.02 21.463 32.02C21.8296 32.02 22.1563 32.1 22.443 32.26C22.7363 32.4133 22.9696 32.64 23.143 32.94C23.3163 33.2333 23.403 33.6 23.403 34.04V37H22.613V34.1C22.613 33.6133 22.4896 33.26 22.243 33.04C22.003 32.82 21.6763 32.71 21.263 32.71C20.7896 32.71 20.403 32.8633 20.103 33.17C19.8096 33.4767 19.663 33.9333 19.663 34.54V37H18.873ZM27.7158 37.14C27.2091 37.14 26.8124 37.0433 26.5258 36.85C26.2458 36.6567 26.0424 36.4367 25.9158 36.19H25.7758V37H25.0058V30H25.7958V32.88H25.9358C26.0158 32.7267 26.1291 32.5833 26.2758 32.45C26.4224 32.31 26.6124 32.1967 26.8458 32.11C27.0858 32.0167 27.3758 31.97 27.7158 31.97C28.1424 31.97 28.5291 32.0733 28.8758 32.28C29.2291 32.48 29.5091 32.77 29.7158 33.15C29.9224 33.5233 30.0258 33.97 30.0258 34.49V34.62C30.0258 35.14 29.9191 35.59 29.7058 35.97C29.4991 36.35 29.2191 36.64 28.8658 36.84C28.5191 37.04 28.1358 37.14 27.7158 37.14ZM27.5058 36.44C28.0124 36.44 28.4224 36.28 28.7358 35.96C29.0558 35.6333 29.2158 35.18 29.2158 34.6V34.51C29.2158 33.93 29.0558 33.48 28.7358 33.16C28.4224 32.8333 28.0124 32.67 27.5058 32.67C27.0058 32.67 26.5924 32.8333 26.2658 33.16C25.9458 33.48 25.7858 33.93 25.7858 34.51V34.6C25.7858 35.18 25.9458 35.6333 26.2658 35.96C26.5924 36.28 27.0058 36.44 27.5058 36.44ZM33.7013 37.14C33.208 37.14 32.7713 37.0367 32.3913 36.83C32.018 36.6233 31.7247 36.3333 31.5113 35.96C31.3047 35.58 31.2013 35.1333 31.2013 34.62V34.49C31.2013 33.9833 31.3047 33.54 31.5113 33.16C31.7247 32.78 32.018 32.4867 32.3913 32.28C32.7713 32.0733 33.208 31.97 33.7013 31.97C34.1947 31.97 34.628 32.0733 35.0013 32.28C35.3813 32.4867 35.6747 32.78 35.8813 33.16C36.0947 33.54 36.2013 33.9833 36.2013 34.49V34.62C36.2013 35.1333 36.0947 35.58 35.8813 35.96C35.6747 36.3333 35.3813 36.6233 35.0013 36.83C34.628 37.0367 34.1947 37.14 33.7013 37.14ZM33.7013 36.43C34.2213 36.43 34.6347 36.2667 34.9413 35.94C35.2547 35.6067 35.4113 35.16 35.4113 34.6V34.51C35.4113 33.95 35.2547 33.5067 34.9413 33.18C34.6347 32.8467 34.2213 32.68 33.7013 32.68C33.188 32.68 32.7747 32.8467 32.4613 33.18C32.148 33.5067 31.9913 33.95 31.9913 34.51V34.6C31.9913 35.16 32.148 35.6067 32.4613 35.94C32.7747 36.2667 33.188 36.43 33.7013 36.43ZM39.123 37.14C38.783 37.14 38.473 37.08 38.193 36.96C37.913 36.84 37.693 36.6667 37.533 36.44C37.373 36.2133 37.293 35.9367 37.293 35.61C37.293 35.2767 37.373 35.0033 37.533 34.79C37.693 34.57 37.913 34.4067 38.193 34.3C38.473 34.1867 38.7863 34.13 39.133 34.13H40.783V33.77C40.783 33.4233 40.6796 33.15 40.473 32.95C40.273 32.75 39.973 32.65 39.573 32.65C39.1796 32.65 38.873 32.7467 38.653 32.94C38.433 33.1267 38.283 33.38 38.203 33.7L37.463 33.46C37.543 33.1867 37.6696 32.94 37.843 32.72C38.0163 32.4933 38.2463 32.3133 38.533 32.18C38.8263 32.04 39.1763 31.97 39.583 31.97C40.2096 31.97 40.6963 32.1333 41.043 32.46C41.3896 32.78 41.563 33.2333 41.563 33.82V36.03C41.563 36.23 41.6563 36.33 41.843 36.33H42.293V37H41.603C41.383 37 41.2063 36.94 41.073 36.82C40.9396 36.6933 40.873 36.5267 40.873 36.32V36.27H40.753C40.6796 36.3967 40.5796 36.53 40.453 36.67C40.333 36.8033 40.1663 36.9133 39.953 37C39.7396 37.0933 39.463 37.14 39.123 37.14ZM39.213 36.46C39.6796 36.46 40.0563 36.3233 40.343 36.05C40.6363 35.77 40.783 35.38 40.783 34.88V34.77H39.163C38.8496 34.77 38.5896 34.84 38.383 34.98C38.183 35.1133 38.083 35.3167 38.083 35.59C38.083 35.8633 38.1863 36.0767 38.393 36.23C38.6063 36.3833 38.8796 36.46 39.213 36.46ZM43.3749 37V32.11H44.1449V32.71H44.2849C44.3716 32.4967 44.5049 32.34 44.6849 32.24C44.8649 32.14 45.1016 32.09 45.3949 32.09H45.9749V32.81H45.3449C44.9916 32.81 44.7049 32.91 44.4849 33.11C44.2716 33.3033 44.1649 33.6067 44.1649 34.02V37H43.3749ZM49.0387 37.14C48.6187 37.14 48.232 37.04 47.8787 36.84C47.5253 36.64 47.2453 36.35 47.0387 35.97C46.832 35.59 46.7287 35.14 46.7287 34.62V34.49C46.7287 33.97 46.832 33.5233 47.0387 33.15C47.2453 32.77 47.522 32.48 47.8687 32.28C48.222 32.0733 48.612 31.97 49.0387 31.97C49.3787 31.97 49.6653 32.0167 49.8987 32.11C50.1387 32.1967 50.332 32.31 50.4787 32.45C50.6253 32.5833 50.7387 32.7267 50.8187 32.88H50.9587V30H51.7487V37H50.9787V36.19H50.8387C50.7053 36.4367 50.4987 36.6567 50.2187 36.85C49.9387 37.0433 49.5453 37.14 49.0387 37.14ZM49.2487 36.44C49.7553 36.44 50.1653 36.28 50.4787 35.96C50.7987 35.6333 50.9587 35.18 50.9587 34.6V34.51C50.9587 33.93 50.7987 33.48 50.4787 33.16C50.1653 32.8333 49.7553 32.67 49.2487 32.67C48.7487 32.67 48.3353 32.8333 48.0087 33.16C47.6887 33.48 47.5287 33.93 47.5287 34.51V34.6C47.5287 35.18 47.6887 35.6333 48.0087 35.96C48.3353 36.28 48.7487 36.44 49.2487 36.44Z" fill="white"/>
<path d="M24.5017 2.54063C24.4522 1.73498 23.8303 1.12721 23.0176 1.07774C22.3674 1.03534 21.4699 1 20.2897 1C19.1095 1 18.212 1.03534 17.5618 1.07774C16.7491 1.12721 16.1272 1.74205 16.0777 2.54063C16.0353 3.18373 16 4.07419 16 5.24026C16 6.40633 16.0353 7.28972 16.0777 7.93989C16.1272 8.74554 16.7491 9.35331 17.5618 9.40278C18.212 9.44518 19.1095 9.48051 20.2897 9.48051C21.4699 9.48051 22.3674 9.44518 23.0176 9.40278C23.8303 9.35331 24.4522 8.73847 24.5017 7.93989C24.5441 7.29678 24.5795 6.40633 24.5795 5.24026C24.5795 4.07419 24.5441 3.18373 24.5017 2.54063Z" stroke="white" stroke-linecap="round" stroke-linejoin="round"/>
<path d="M24.5017 13.8409C24.4522 13.0353 23.8303 12.4275 23.0176 12.378C22.3674 12.3356 21.4699 12.3003 20.2897 12.3003C19.1095 12.3003 18.212 12.3356 17.5618 12.378C16.7491 12.4275 16.1272 13.0423 16.0777 13.8409C16.0353 14.484 16 15.3745 16 16.5406C16 17.7066 16.0353 18.59 16.0777 19.2402C16.1272 20.0458 16.7491 20.6536 17.5618 20.7031C18.212 20.7455 19.1095 20.7808 20.2897 20.7808C21.4699 20.7808 22.3674 20.7455 23.0176 20.7031C23.8303 20.6536 24.4522 20.0388 24.5017 19.2402C24.5441 18.5971 24.5795 17.7066 24.5795 16.5406C24.5795 15.3745 24.5441 14.4911 24.5017 13.8409Z" stroke="white" stroke-linecap="round" stroke-linejoin="round"/>
<path d="M27.4558 2.05313C27.484 1.75632 27.7102 1.56551 28.0141 1.5443C28.537 1.50897 29.6042 1.47363 31.7172 1.47363C33.8303 1.47363 34.8974 1.51604 35.4204 1.5443C35.7172 1.56551 35.9504 1.75632 35.9787 2.05313C35.9928 2.20154 35.9999 2.39942 35.9999 2.64677C35.9999 2.89412 35.9928 3.092 35.9787 3.24041C35.9504 3.53722 35.7172 3.72804 35.4204 3.74924C34.8974 3.78457 33.8303 3.81991 31.7172 3.81991C29.6042 3.81991 28.537 3.77751 28.0141 3.74924C27.7173 3.72804 27.484 3.53722 27.4558 3.24041C27.4416 3.092 27.4346 2.89412 27.4346 2.64677C27.4346 2.39942 27.4416 2.20154 27.4558 2.05313Z" stroke="white" stroke-linecap="round" stroke-linejoin="round"/>
<path d="M27.4487 7.25451C27.4628 6.95063 27.689 6.73155 27.9929 6.71035C28.3886 6.68208 29.0812 6.65381 30.2897 6.65381C31.4982 6.65381 32.1907 6.68208 32.5865 6.71035C32.8974 6.73155 33.1165 6.95063 33.1306 7.25451C33.1377 7.40292 33.1448 7.59373 33.1448 7.82695C33.1448 8.06016 33.1448 8.25097 33.1306 8.39938C33.1094 8.70327 32.8904 8.92235 32.5865 8.94355C32.1907 8.97182 31.4982 9.00009 30.2897 9.00009C29.0812 9.00009 28.3886 8.97182 27.9929 8.94355C27.6819 8.92235 27.4628 8.70327 27.4487 8.39938C27.4416 8.25097 27.4346 8.06016 27.4346 7.82695C27.4346 7.59373 27.4346 7.40292 27.4487 7.25451Z" stroke="white" stroke-linecap="round" stroke-linejoin="round"/>
<path d="M27.4487 18.5548C27.4628 18.2509 27.689 18.0318 27.9929 18.0106C28.3886 17.9824 29.0812 17.9541 30.2897 17.9541C31.4982 17.9541 32.1907 17.9824 32.5865 18.0106C32.8974 18.0318 33.1165 18.2509 33.1306 18.5548C33.1377 18.7032 33.1448 18.894 33.1448 19.1272C33.1448 19.3605 33.1448 19.5513 33.1306 19.6997C33.1094 20.0036 32.8904 20.2226 32.5865 20.2438C32.1907 20.2721 31.4982 20.3004 30.2897 20.3004C29.0812 20.3004 28.3886 20.2721 27.9929 20.2438C27.6819 20.2226 27.4628 20.0036 27.4487 19.6997C27.4416 19.5513 27.4346 19.3605 27.4346 19.1272C27.4346 18.894 27.4346 18.7032 27.4487 18.5548Z" stroke="white" stroke-linecap="round" stroke-linejoin="round"/>
<path d="M27.4558 13.3534C27.484 13.0566 27.7102 12.8658 28.0141 12.8446C28.537 12.8093 29.6042 12.7739 31.7172 12.7739C33.8303 12.7739 34.8974 12.8163 35.4204 12.8446C35.7172 12.8658 35.9504 13.0566 35.9787 13.3534C35.9928 13.5018 35.9999 13.6997 35.9999 13.9471C35.9999 14.1944 35.9928 14.3923 35.9787 14.5407C35.9504 14.8375 35.7172 15.0283 35.4204 15.0495C34.8974 15.0849 33.8303 15.1202 31.7172 15.1202C29.6042 15.1202 28.537 15.0778 28.0141 15.0495C27.7173 15.0283 27.484 14.8375 27.4558 14.5407C27.4416 14.3923 27.4346 14.1944 27.4346 13.9471C27.4346 13.6997 27.4416 13.5018 27.4558 13.3534Z" stroke="white" stroke-linecap="round" stroke-linejoin="round"/>
</svg>
