<svg width="21" height="21" viewBox="0 0 21 21" fill="none" xmlns="http://www.w3.org/2000/svg">
<path fill-rule="evenodd" clip-rule="evenodd" d="M6.96184 1.18721C6.96184 1.74905 6.50806 2.2045 5.9483 2.2045L4.57144 2.2045C4.10992 2.2045 3.6673 2.38852 3.34096 2.71608C3.01461 3.04363 2.83127 3.48789 2.83127 3.95112L2.83127 16.3887C2.83127 16.852 3.01461 17.2962 3.34095 17.6238C3.6673 17.9513 4.10992 18.1353 4.57144 18.1353L5.9483 18.1353C6.50806 18.1353 6.96184 18.5908 6.96184 19.1526C6.96184 19.7145 6.50806 20.1699 5.9483 20.1699L4.57144 20.1699C3.57231 20.1699 2.61409 19.7715 1.9076 19.0624C1.2011 18.3533 0.804194 17.3916 0.804194 16.3887L0.804195 3.95112C0.804195 2.94829 1.2011 1.98652 1.9076 1.27741C2.61409 0.568297 3.57231 0.169922 4.57144 0.169922L5.9483 0.169922C6.50806 0.169922 6.96184 0.625379 6.96184 1.18721Z" fill="#52C1FF"/>
<path d="M12.4597 10.17C12.4597 8.98057 12.6667 7.15972 12.8198 5.97625C12.8995 5.35978 13.5144 4.96864 14.0914 5.19456C16.2916 6.05605 18.3607 7.46888 19.6672 9.7126C19.8318 9.99518 19.8318 10.3449 19.6673 10.6275C18.3609 12.8713 16.2917 14.284 14.0915 15.1455C13.5145 15.3714 12.8996 14.9803 12.8199 14.3638C12.6668 13.1804 12.4597 11.3595 12.4597 10.17Z" fill="white"/>
<path fill-rule="evenodd" clip-rule="evenodd" d="M18.7594 10.1704C17.6166 8.24243 15.8164 6.97929 13.8157 6.17927C13.6633 7.36685 13.4733 9.07806 13.4733 10.1704C13.4733 11.2626 13.6634 12.9739 13.8158 14.1614C15.8166 13.3615 17.6167 12.0984 18.7594 10.1704ZM20.5423 9.19962C20.8915 9.7993 20.8915 10.5414 20.5424 11.1411C19.0879 13.6393 16.8031 15.1761 14.4598 16.0936C13.2295 16.5753 11.9737 15.7238 11.8148 14.4952C11.6625 13.3177 11.4462 11.4348 11.4462 10.1704C11.4462 8.90596 11.6624 7.02308 11.8147 5.84566C11.9735 4.61702 13.2294 3.76542 14.4597 4.24717L14.0914 5.1949L14.4597 4.24717C16.803 5.16469 19.0877 6.70154 20.5423 9.19962Z" fill="#52C1FF"/>
<path fill-rule="evenodd" clip-rule="evenodd" d="M13.4731 10.1696C13.4731 10.7315 13.0193 11.1869 12.4596 11.1869L5.94846 11.1869C5.3887 11.1869 4.93492 10.7315 4.93492 10.1696C4.93492 9.6078 5.3887 9.15234 5.94846 9.15234L12.4596 9.15234C13.0193 9.15234 13.4731 9.6078 13.4731 10.1696Z" fill="#52C1FF"/>
</svg>
