<svg width="20" height="20" viewBox="0 0 20 20" fill="none" xmlns="http://www.w3.org/2000/svg">
<path fill-rule="evenodd" clip-rule="evenodd" d="M1.07143 0C1.66316 0 2.14286 0.479695 2.14286 1.07143V16.0714C2.14286 17.0577 2.94235 17.8571 3.92857 17.8571H18.9286C19.5203 17.8571 20 18.3368 20 18.9286C20 19.5203 19.5203 20 18.9286 20H3.92857C1.75888 20 0 18.2411 0 16.0714V1.07143C0 0.479695 0.479695 0 1.07143 0Z" fill="#52C1FF"/>
<path fill-rule="evenodd" clip-rule="evenodd" d="M12.5969 2.53209C12.91 2.4537 13.2417 2.52063 13.5 2.71429L19.2142 7.00001C19.6876 7.35505 19.7836 8.02662 19.4285 8.50001C19.0735 8.9734 18.4019 9.06933 17.9285 8.71429L13.27 5.22036L8.82801 14.7388C8.69152 15.0313 8.43044 15.2467 8.11733 15.3251C7.80422 15.4035 7.47246 15.3365 7.21424 15.1429L4.3571 13C3.88371 12.645 3.78778 11.9734 4.14282 11.5C4.49786 11.0266 5.16943 10.9307 5.64282 11.2857L7.44425 12.6368L11.8862 3.11835C12.0227 2.82586 12.2838 2.61049 12.5969 2.53209Z" fill="#52C1FF"/>
</svg>
