<svg width="33" height="46" viewBox="0 0 33 46" fill="none" xmlns="http://www.w3.org/2000/svg">
<path d="M1.68148 41.871V34.871H4.56148C5.00148 34.871 5.38815 34.961 5.72148 35.141C6.06148 35.3143 6.32482 35.561 6.51148 35.881C6.70482 36.201 6.80148 36.581 6.80148 37.021V37.161C6.80148 37.5943 6.70148 37.9743 6.50148 38.301C6.30815 38.621 6.04148 38.871 5.70148 39.051C5.36815 39.2243 4.98815 39.311 4.56148 39.311H3.00148V41.871H1.68148ZM3.00148 38.111H4.43148C4.74482 38.111 4.99815 38.0243 5.19148 37.851C5.38482 37.6776 5.48148 37.441 5.48148 37.141V37.041C5.48148 36.741 5.38482 36.5043 5.19148 36.331C4.99815 36.1576 4.74482 36.071 4.43148 36.071H3.00148V38.111ZM7.76641 41.871V36.911H9.00641V37.471H9.18641C9.25974 37.271 9.37974 37.1243 9.54641 37.031C9.71974 36.9376 9.91974 36.891 10.1464 36.891H10.7464V38.011H10.1264C9.80641 38.011 9.54307 38.0976 9.33641 38.271C9.12974 38.4376 9.02641 38.6976 9.02641 39.051V41.871H7.76641ZM13.9155 42.011C13.4221 42.011 12.9788 41.911 12.5855 41.711C12.1921 41.511 11.8821 41.221 11.6555 40.841C11.4288 40.461 11.3155 40.0043 11.3155 39.471V39.311C11.3155 38.7776 11.4288 38.321 11.6555 37.941C11.8821 37.561 12.1921 37.271 12.5855 37.071C12.9788 36.871 13.4221 36.771 13.9155 36.771C14.4088 36.771 14.8521 36.871 15.2455 37.071C15.6388 37.271 15.9488 37.561 16.1755 37.941C16.4021 38.321 16.5155 38.7776 16.5155 39.311V39.471C16.5155 40.0043 16.4021 40.461 16.1755 40.841C15.9488 41.221 15.6388 41.511 15.2455 41.711C14.8521 41.911 14.4088 42.011 13.9155 42.011ZM13.9155 40.891C14.3021 40.891 14.6221 40.7676 14.8755 40.521C15.1288 40.2676 15.2555 39.9076 15.2555 39.441V39.341C15.2555 38.8743 15.1288 38.5176 14.8755 38.271C14.6288 38.0176 14.3088 37.891 13.9155 37.891C13.5288 37.891 13.2088 38.0176 12.9555 38.271C12.7021 38.5176 12.5755 38.8743 12.5755 39.341V39.441C12.5755 39.9076 12.7021 40.2676 12.9555 40.521C13.2088 40.7676 13.5288 40.891 13.9155 40.891ZM18.3325 41.871V37.951H17.0725V36.911H18.3325V35.991C18.3325 35.651 18.4325 35.381 18.6325 35.181C18.8392 34.9743 19.1058 34.871 19.4325 34.871H20.6325V35.911H19.8725C19.6858 35.911 19.5925 36.011 19.5925 36.211V36.911H21.5925V37.951H19.5925V41.871H18.3325ZM21.5925 41.871V36.911H22.8525V41.871H21.5925ZM22.2225 36.371C21.9958 36.371 21.8025 36.2976 21.6425 36.151C21.4892 36.0043 21.4125 35.811 21.4125 35.571C21.4125 35.331 21.4892 35.1376 21.6425 34.991C21.8025 34.8443 21.9958 34.771 22.2225 34.771C22.4558 34.771 22.6492 34.8443 22.8025 34.991C22.9558 35.1376 23.0325 35.331 23.0325 35.571C23.0325 35.811 22.9558 36.0043 22.8025 36.151C22.6492 36.2976 22.4558 36.371 22.2225 36.371ZM24.2508 41.871V34.871H25.5108V41.871H24.2508ZM29.167 42.011C28.6737 42.011 28.237 41.9076 27.857 41.701C27.4837 41.4876 27.1904 41.191 26.977 40.811C26.7704 40.4243 26.667 39.971 26.667 39.451V39.331C26.667 38.811 26.7704 38.361 26.977 37.981C27.1837 37.5943 27.4737 37.2976 27.847 37.091C28.2204 36.8776 28.6537 36.771 29.147 36.771C29.6337 36.771 30.057 36.881 30.417 37.101C30.777 37.3143 31.057 37.6143 31.257 38.001C31.457 38.381 31.557 38.8243 31.557 39.331V39.761H27.947C27.9604 40.101 28.087 40.3776 28.327 40.591C28.567 40.8043 28.8604 40.911 29.207 40.911C29.5604 40.911 29.8204 40.8343 29.987 40.681C30.1537 40.5276 30.2804 40.3576 30.367 40.171L31.397 40.711C31.3037 40.8843 31.167 41.0743 30.987 41.281C30.8137 41.481 30.5804 41.6543 30.287 41.801C29.9937 41.941 29.6204 42.011 29.167 42.011ZM27.957 38.821H30.277C30.2504 38.5343 30.1337 38.3043 29.927 38.131C29.727 37.9576 29.4637 37.871 29.137 37.871C28.797 37.871 28.527 37.9576 28.327 38.131C28.127 38.3043 28.0037 38.5343 27.957 38.821Z" fill="#133BB7"/>
<path d="M25.0072 9.93035C25.0072 14.8622 20.967 18.8607 15.9794 18.8607C10.9918 18.8607 6.93755 14.8622 6.93755 9.93035C6.93755 4.99846 10.9778 1 15.9794 1C20.9809 1 25.0072 4.99846 25.0072 9.93035Z" stroke="#133BB7" stroke-width="2" stroke-linecap="round" stroke-linejoin="round"/>
<path d="M12.329 18.0946C9.04109 19.0698 6.4637 21.3129 5.4606 24.1132C4.91726 25.6318 6.04577 27.0667 7.66187 27.3036C9.40335 27.5544 12.0922 27.7773 15.9653 27.7773C19.8383 27.7773 22.5272 27.5404 24.2687 27.3036C25.8848 27.0807 27.0272 25.6457 26.4699 24.1132C25.4668 21.2989 22.8894 19.0559 19.6015 18.0946" stroke="#133BB7" stroke-width="2" stroke-linecap="round" stroke-linejoin="round"/>
<path d="M25.0072 9.93035C20.0196 9.93035 15.9794 5.93189 15.9794 1C15.9794 5.93189 11.9391 9.93035 6.93755 9.93035" stroke="#133BB7" stroke-width="2" stroke-linecap="round" stroke-linejoin="round"/>
<path d="M18.5423 14.0679C17.4138 15.7676 14.5159 15.7676 13.3735 14.0679" stroke="#133BB7" stroke-width="2" stroke-linecap="round" stroke-linejoin="round"/>
<path d="M12.7469 10.5573V10.8777" stroke="#133BB7" stroke-width="2" stroke-linecap="round" stroke-linejoin="round"/>
<path d="M19.1974 10.5573V10.8777" stroke="#133BB7" stroke-width="2" stroke-linecap="round" stroke-linejoin="round"/>
</svg>
