<svg width="47" height="40" viewBox="0 0 47 40" fill="none" xmlns="http://www.w3.org/2000/svg">
<path d="M2.58738 37V30.76H0.337383V30H5.67738V30.76H3.42738V37H2.58738ZM6.01457 37V32.11H6.78457V32.71H6.92457C7.01124 32.4967 7.14457 32.34 7.32457 32.24C7.50457 32.14 7.74124 32.09 8.03457 32.09H8.61457V32.81H7.98457C7.63124 32.81 7.34457 32.91 7.12457 33.11C6.91124 33.3033 6.80457 33.6067 6.80457 34.02V37H6.01457ZM11.1181 37.14C10.7781 37.14 10.4681 37.08 10.1881 36.96C9.90809 36.84 9.68809 36.6667 9.52809 36.44C9.36809 36.2133 9.28809 35.9367 9.28809 35.61C9.28809 35.2767 9.36809 35.0033 9.52809 34.79C9.68809 34.57 9.90809 34.4067 10.1881 34.3C10.4681 34.1867 10.7814 34.13 11.1281 34.13H12.7781V33.77C12.7781 33.4233 12.6748 33.15 12.4681 32.95C12.2681 32.75 11.9681 32.65 11.5681 32.65C11.1748 32.65 10.8681 32.7467 10.6481 32.94C10.4281 33.1267 10.2781 33.38 10.1981 33.7L9.45809 33.46C9.53809 33.1867 9.66475 32.94 9.83809 32.72C10.0114 32.4933 10.2414 32.3133 10.5281 32.18C10.8214 32.04 11.1714 31.97 11.5781 31.97C12.2048 31.97 12.6914 32.1333 13.0381 32.46C13.3848 32.78 13.5581 33.2333 13.5581 33.82V36.03C13.5581 36.23 13.6514 36.33 13.8381 36.33H14.2881V37H13.5981C13.3781 37 13.2014 36.94 13.0681 36.82C12.9348 36.6933 12.8681 36.5267 12.8681 36.32V36.27H12.7481C12.6748 36.3967 12.5748 36.53 12.4481 36.67C12.3281 36.8033 12.1614 36.9133 11.9481 37C11.7348 37.0933 11.4581 37.14 11.1181 37.14ZM11.2081 36.46C11.6748 36.46 12.0514 36.3233 12.3381 36.05C12.6314 35.77 12.7781 35.38 12.7781 34.88V34.77H11.1581C10.8448 34.77 10.5848 34.84 10.3781 34.98C10.1781 35.1133 10.0781 35.3167 10.0781 35.59C10.0781 35.8633 10.1814 36.0767 10.3881 36.23C10.6014 36.3833 10.8748 36.46 11.2081 36.46ZM15.37 37V32.11H16.14V32.94H16.28C16.3867 32.7067 16.5667 32.4967 16.82 32.31C17.08 32.1167 17.46 32.02 17.96 32.02C18.3267 32.02 18.6534 32.0967 18.94 32.25C19.2334 32.4033 19.4667 32.63 19.64 32.93C19.8134 33.23 19.9 33.6 19.9 34.04V37H19.11V34.1C19.11 33.6133 18.9867 33.26 18.74 33.04C18.5 32.82 18.1734 32.71 17.76 32.71C17.2867 32.71 16.9 32.8633 16.6 33.17C16.3067 33.4767 16.16 33.9333 16.16 34.54V37H15.37ZM23.4729 37.14C22.8662 37.14 22.3529 37 21.9329 36.72C21.5195 36.44 21.2695 35.9967 21.1829 35.39L21.9329 35.22C21.9862 35.54 22.0862 35.7933 22.2329 35.98C22.3795 36.16 22.5595 36.29 22.7729 36.37C22.9929 36.4433 23.2262 36.48 23.4729 36.48C23.8395 36.48 24.1295 36.4067 24.3429 36.26C24.5562 36.1133 24.6629 35.9167 24.6629 35.67C24.6629 35.4167 24.5595 35.24 24.3529 35.14C24.1529 35.0333 23.8762 34.9467 23.5229 34.88L23.1129 34.81C22.7995 34.7567 22.5129 34.6733 22.2529 34.56C21.9929 34.4467 21.7862 34.2933 21.6329 34.1C21.4795 33.9067 21.4029 33.6633 21.4029 33.37C21.4029 32.93 21.5729 32.5867 21.9129 32.34C22.2529 32.0933 22.7029 31.97 23.2629 31.97C23.8162 31.97 24.2629 32.0967 24.6029 32.35C24.9495 32.5967 25.1729 32.9467 25.2729 33.4L24.5329 33.59C24.4729 33.2367 24.3295 32.99 24.1029 32.85C23.8762 32.7033 23.5962 32.63 23.2629 32.63C22.9295 32.63 22.6662 32.6933 22.4729 32.82C22.2795 32.94 22.1829 33.12 22.1829 33.36C22.1829 33.5933 22.2729 33.7667 22.4529 33.88C22.6395 33.9867 22.8862 34.0667 23.1929 34.12L23.6029 34.19C23.9495 34.25 24.2595 34.3333 24.5329 34.44C24.8129 34.54 25.0329 34.6867 25.1929 34.88C25.3595 35.0733 25.4429 35.3267 25.4429 35.64C25.4429 36.12 25.2629 36.49 24.9029 36.75C24.5495 37.01 24.0729 37.14 23.4729 37.14ZM26.7763 39V32.11H27.5463V32.92H27.6863C27.813 32.6733 28.0163 32.4533 28.2963 32.26C28.583 32.0667 28.9796 31.97 29.4863 31.97C29.9063 31.97 30.2896 32.0733 30.6363 32.28C30.9896 32.48 31.2696 32.7667 31.4763 33.14C31.6896 33.5133 31.7963 33.9633 31.7963 34.49V34.62C31.7963 35.14 31.693 35.59 31.4863 35.97C31.2796 36.35 30.9996 36.64 30.6463 36.84C30.2996 37.04 29.913 37.14 29.4863 37.14C29.1463 37.14 28.8563 37.0933 28.6163 37C28.383 36.9133 28.193 36.8 28.0463 36.66C27.8996 36.52 27.7863 36.3767 27.7063 36.23H27.5663V39H26.7763ZM29.2763 36.44C29.783 36.44 30.193 36.28 30.5063 35.96C30.8263 35.6333 30.9863 35.18 30.9863 34.6V34.51C30.9863 33.93 30.8263 33.48 30.5063 33.16C30.193 32.8333 29.783 32.67 29.2763 32.67C28.7763 32.67 28.363 32.8333 28.0363 33.16C27.7163 33.48 27.5563 33.93 27.5563 34.51V34.6C27.5563 35.18 27.7163 35.6333 28.0363 35.96C28.363 36.28 28.7763 36.44 29.2763 36.44ZM35.4718 37.14C34.9785 37.14 34.5418 37.0367 34.1618 36.83C33.7885 36.6233 33.4952 36.3333 33.2818 35.96C33.0752 35.58 32.9718 35.1333 32.9718 34.62V34.49C32.9718 33.9833 33.0752 33.54 33.2818 33.16C33.4952 32.78 33.7885 32.4867 34.1618 32.28C34.5418 32.0733 34.9785 31.97 35.4718 31.97C35.9652 31.97 36.3985 32.0733 36.7718 32.28C37.1518 32.4867 37.4452 32.78 37.6518 33.16C37.8652 33.54 37.9718 33.9833 37.9718 34.49V34.62C37.9718 35.1333 37.8652 35.58 37.6518 35.96C37.4452 36.3333 37.1518 36.6233 36.7718 36.83C36.3985 37.0367 35.9652 37.14 35.4718 37.14ZM35.4718 36.43C35.9918 36.43 36.4052 36.2667 36.7118 35.94C37.0252 35.6067 37.1818 35.16 37.1818 34.6V34.51C37.1818 33.95 37.0252 33.5067 36.7118 33.18C36.4052 32.8467 35.9918 32.68 35.4718 32.68C34.9585 32.68 34.5452 32.8467 34.2318 33.18C33.9185 33.5067 33.7618 33.95 33.7618 34.51V34.6C33.7618 35.16 33.9185 35.6067 34.2318 35.94C34.5452 36.2667 34.9585 36.43 35.4718 36.43ZM39.3935 37V32.11H40.1635V32.71H40.3035C40.3901 32.4967 40.5235 32.34 40.7035 32.24C40.8835 32.14 41.1201 32.09 41.4135 32.09H41.9935V32.81H41.3635C41.0101 32.81 40.7235 32.91 40.5035 33.11C40.2901 33.3033 40.1835 33.6067 40.1835 34.02V37H39.3935ZM44.963 37C44.683 37 44.4663 36.9233 44.313 36.77C44.1663 36.6167 44.093 36.4067 44.093 36.14V32.8H42.623V32.11H44.093V30.37H44.883V32.11H46.483V32.8H44.883V36.02C44.883 36.22 44.9797 36.32 45.173 36.32H46.263V37H44.963Z" fill="white"/>
<path d="M13.0029 4.7093C12.9515 5.51076 13.5988 6.17864 14.4208 6.17864H31.5802C32.3919 6.17864 33.0392 5.51076 32.9981 4.7093C32.9673 4.24692 32.9365 3.83592 32.9057 3.47629C32.8029 2.27411 31.8679 1.35963 30.6554 1.25688C29.0936 1.13358 26.5968 1 23.0005 1C19.4042 1 16.9074 1.13358 15.3456 1.25688C14.1331 1.34935 13.1981 2.27411 13.0953 3.47629C13.0645 3.83592 13.0337 4.24692 13.0029 4.7093Z" stroke="white" stroke-linecap="round" stroke-linejoin="round"/>
<path d="M14.4309 6.17871V11.3573C14.4309 14.1213 14.5234 16.1044 14.6261 17.4196C14.7186 18.6218 15.6434 19.5363 16.8661 19.6288C18.1916 19.7315 20.2055 19.824 23.0003 19.824C25.7951 19.824 27.809 19.7315 29.1345 19.6288C30.347 19.5363 31.282 18.6218 31.3745 17.4196C31.4772 16.1044 31.5697 14.1213 31.5697 11.3573V6.17871" stroke="white" stroke-linecap="round" stroke-linejoin="round"/>
<path d="M18.7261 10.689C18.7569 11.3672 19.3426 11.7782 20.031 11.7987C20.6989 11.8193 21.675 11.8296 23.0108 11.8296C24.3465 11.8296 25.3227 11.8193 25.9905 11.7987C26.6687 11.7782 27.2647 11.3672 27.2955 10.689C27.2955 10.6068 27.2955 10.5144 27.2955 10.4116C27.2955 10.3089 27.2955 10.2267 27.2955 10.1342C27.2647 9.45603 26.679 9.04503 25.9905 9.02448C25.3227 9.00393 24.3465 8.99365 23.0108 8.99365C21.675 8.99365 20.6989 9.00393 20.031 9.02448C19.3529 9.04503 18.7569 9.45603 18.7261 10.1342C18.7261 10.2164 18.7261 10.3089 18.7261 10.4116C18.7261 10.5144 18.7261 10.5966 18.7261 10.689Z" stroke="white" stroke-linecap="round" stroke-linejoin="round"/>
</svg>
