<svg width="25" height="39" viewBox="0 0 25 39" fill="none" xmlns="http://www.w3.org/2000/svg">
<path d="M3.32043 36.14C2.81376 36.14 2.36043 36.05 1.96043 35.87C1.56043 35.69 1.24376 35.42 1.01043 35.06C0.783763 34.6933 0.67043 34.2367 0.67043 33.69V33.48H1.50043V33.69C1.50043 34.27 1.67043 34.7033 2.01043 34.99C2.35043 35.27 2.7871 35.41 3.32043 35.41C3.8671 35.41 4.28376 35.2867 4.57043 35.04C4.8571 34.7933 5.00043 34.4833 5.00043 34.11C5.00043 33.85 4.93376 33.6433 4.80043 33.49C4.67376 33.3367 4.49376 33.2133 4.26043 33.12C4.0271 33.02 3.75376 32.9333 3.44043 32.86L2.92043 32.73C2.51376 32.6233 2.15376 32.4933 1.84043 32.34C1.5271 32.1867 1.28043 31.9867 1.10043 31.74C0.927096 31.4867 0.84043 31.1633 0.84043 30.77C0.84043 30.3767 0.937096 30.0367 1.13043 29.75C1.33043 29.4633 1.6071 29.2433 1.96043 29.09C2.32043 28.9367 2.73376 28.86 3.20043 28.86C3.67376 28.86 4.0971 28.9433 4.47043 29.11C4.85043 29.27 5.1471 29.51 5.36043 29.83C5.58043 30.1433 5.69043 30.54 5.69043 31.02V31.44H4.86043V31.02C4.86043 30.68 4.7871 30.4067 4.64043 30.2C4.50043 29.9933 4.30376 29.84 4.05043 29.74C3.80376 29.64 3.52043 29.59 3.20043 29.59C2.74043 29.59 2.37043 29.6933 2.09043 29.9C1.81043 30.1 1.67043 30.3867 1.67043 30.76C1.67043 31.0067 1.73043 31.2067 1.85043 31.36C1.97043 31.5133 2.14043 31.64 2.36043 31.74C2.58043 31.8333 2.84376 31.9167 3.15043 31.99L3.67043 32.12C4.0771 32.2067 4.44043 32.3267 4.76043 32.48C5.0871 32.6267 5.3471 32.83 5.54043 33.09C5.73376 33.3433 5.83043 33.6767 5.83043 34.09C5.83043 34.5033 5.7271 34.8633 5.52043 35.17C5.31376 35.4767 5.02043 35.7167 4.64043 35.89C4.2671 36.0567 3.8271 36.14 3.32043 36.14ZM9.39324 36.14C8.89991 36.14 8.46658 36.0367 8.09324 35.83C7.71991 35.6167 7.42991 35.32 7.22324 34.94C7.01658 34.56 6.91324 34.12 6.91324 33.62V33.5C6.91324 32.9933 7.01658 32.55 7.22324 32.17C7.42991 31.79 7.71658 31.4967 8.08324 31.29C8.44991 31.0767 8.86991 30.97 9.34324 30.97C9.80324 30.97 10.2099 31.07 10.5632 31.27C10.9166 31.4633 11.1932 31.7433 11.3932 32.11C11.5932 32.4767 11.6932 32.9067 11.6932 33.4V33.76H7.70324C7.72324 34.2867 7.89324 34.7 8.21324 35C8.53324 35.2933 8.93324 35.44 9.41324 35.44C9.83324 35.44 10.1566 35.3433 10.3832 35.15C10.6099 34.9567 10.7832 34.7267 10.9032 34.46L11.5832 34.79C11.4832 34.9967 11.3432 35.2033 11.1632 35.41C10.9899 35.6167 10.7599 35.79 10.4732 35.93C10.1932 36.07 9.83324 36.14 9.39324 36.14ZM7.71324 33.11H10.8932C10.8666 32.6567 10.7099 32.3033 10.4232 32.05C10.1432 31.7967 9.78324 31.67 9.34324 31.67C8.89658 31.67 8.52991 31.7967 8.24324 32.05C7.95658 32.3033 7.77991 32.6567 7.71324 33.11ZM13.0712 36V31.11H13.8412V31.94H13.9812C14.0879 31.7067 14.2679 31.4967 14.5212 31.31C14.7812 31.1167 15.1612 31.02 15.6612 31.02C16.0279 31.02 16.3545 31.0967 16.6412 31.25C16.9345 31.4033 17.1679 31.63 17.3412 31.93C17.5145 32.23 17.6012 32.6 17.6012 33.04V36H16.8112V33.1C16.8112 32.6133 16.6879 32.26 16.4412 32.04C16.2012 31.82 15.8745 31.71 15.4612 31.71C14.9879 31.71 14.6012 31.8633 14.3012 32.17C14.0079 32.4767 13.8612 32.9333 13.8612 33.54V36H13.0712ZM21.274 36.14C20.854 36.14 20.4674 36.04 20.114 35.84C19.7607 35.64 19.4807 35.35 19.274 34.97C19.0674 34.59 18.964 34.14 18.964 33.62V33.49C18.964 32.97 19.0674 32.5233 19.274 32.15C19.4807 31.77 19.7574 31.48 20.104 31.28C20.4574 31.0733 20.8474 30.97 21.274 30.97C21.614 30.97 21.9007 31.0167 22.134 31.11C22.374 31.1967 22.5674 31.31 22.714 31.45C22.8607 31.5833 22.974 31.7267 23.054 31.88H23.194V29H23.984V36H23.214V35.19H23.074C22.9407 35.4367 22.734 35.6567 22.454 35.85C22.174 36.0433 21.7807 36.14 21.274 36.14ZM21.484 35.44C21.9907 35.44 22.4007 35.28 22.714 34.96C23.034 34.6333 23.194 34.18 23.194 33.6V33.51C23.194 32.93 23.034 32.48 22.714 32.16C22.4007 31.8333 21.9907 31.67 21.484 31.67C20.984 31.67 20.5707 31.8333 20.244 32.16C19.924 32.48 19.764 32.93 19.764 33.51V33.6C19.764 34.18 19.924 34.6333 20.244 34.96C20.5707 35.28 20.984 35.44 21.484 35.44Z" fill="white"/>
<path d="M2.48601 4.47357C1.63972 3.81871 1.95204 2.55935 3.0099 2.35786C6.58647 1.67277 13.5381 0.635058 20.4696 1.12873C21.6383 1.20932 22.3435 2.4183 21.8297 3.46609C18.8072 9.65204 14.4146 15.0723 12.0269 17.8026C11.3216 18.6086 10.0522 18.2459 9.91117 17.188C9.58877 14.9313 9.42757 12.6745 9.35705 11.5864C9.32683 11.1431 9.47795 10.7099 9.77012 10.3674L12.3795 7.3046L8.38987 8.00984C7.94657 8.09044 7.4932 7.99977 7.12043 7.75797C6.19355 7.15348 4.30955 5.88405 2.48601 4.48365V4.47357Z" stroke="white" stroke-linejoin="round"/>
</svg>
